<?xml version="1.0" encoding="utf-8"?>
<!-- Generator: Adobe Illustrator 19.2.1, SVG Export Plug-In . SVG Version: 6.00 Build 0)  -->
<svg version="1.1" id="Layer_1" xmlns="http://www.w3.org/2000/svg" xmlns:xlink="http://www.w3.org/1999/xlink" x="0px" y="0px"
	 viewBox="0 0 100 44.6" style="enable-background:new 0 0 100 44.6;" xml:space="preserve">
<style type="text/css">
	.st0{fill:#FFFFFF;}
</style>
<path class="st0" d="M96.4,17.9h-3.6V25c0,5.9-4.8,10.7-10.7,10.7H67.9c-5.9,0-10.7-4.8-10.7-10.7l-3.5-14.1
	c-1.2-0.1-2.5-0.1-3.7-0.1c-1.2,0-2.4,0.1-3.5,0.2L42.9,25c0,5.9-4.8,10.7-10.7,10.7H17.9c-5.9,0-10.7-4.8-10.7-10.7v-7.1H3.6
	c-2,0-3.6-1.6-3.6-3.6v-3.6c0-2,1.6-3.6,3.6-3.6h4.2C9.3,3,13.2,0,17.9,0h17.9c3.4,0,6.3,1.6,8.3,4c1.9-0.3,3.8-0.5,5.9-0.5
	C51.9,3.6,54,3.7,56,4c2-2.4,4.9-4,8.3-4h17.9c4.7,0,8.6,3,10.1,7.1h4.2c2,0,3.6,1.6,3.6,3.6v3.6C100,16.3,98.4,17.9,96.4,17.9z
	 M29.8,5.9c-1-1-2.7-1-3.8,0L14.6,17.3c-1,1-1,2.7,0,3.8c1,1,2.7,1,3.8,0L29.8,9.7C30.8,8.7,30.8,7,29.8,5.9z M79.8,5.9
	c-1-1-2.7-1-3.8,0L64.6,17.3c-1,1-1,2.7,0,3.8c1,1,2.7,1,3.8,0L79.8,9.7C80.8,8.7,80.8,7,79.8,5.9z"/>
</svg>
