<?xml version="1.0" encoding="utf-8"?>
<!-- Generator: Adobe Illustrator 16.0.0, SVG Export Plug-In . SVG Version: 6.00 Build 0)  -->
<!DOCTYPE svg PUBLIC "-//W3C//DTD SVG 1.1//EN" "http://www.w3.org/Graphics/SVG/1.1/DTD/svg11.dtd">
<svg version="1.1" id="Layer_1" xmlns="http://www.w3.org/2000/svg" xmlns:xlink="http://www.w3.org/1999/xlink" x="0px" y="0px"
	 width="187.579px" height="120.852px" viewBox="0 0 187.579 120.852" enable-background="new 0 0 187.579 120.852"
	 xml:space="preserve">
<g>
	<g display="none">
		<g display="inline">
			<rect x="-62.494" y="-74.149" fill="#CADAD1" width="283.465" height="226.771"/>
			<g>
				<g>
					<g>
						<path fill="#414A45" d="M56.464-43.135c0-2.477,1.594-3.928,3.49-3.928c0.955,0,1.715,0.457,2.203,0.965l-0.791,0.953
							c-0.377-0.365-0.812-0.629-1.381-0.629c-1.137,0-1.988,0.975-1.988,2.588c0,1.634,0.771,2.617,1.957,2.617
							c0.641,0,1.148-0.304,1.553-0.74l0.793,0.934c-0.619,0.721-1.422,1.105-2.395,1.105C58.007-39.27,56.464-40.629,56.464-43.135
							z"/>
						<path fill="#414A45" d="M64.253-43.197c0-2.445,1.371-3.866,3.359-3.866s3.359,1.432,3.359,3.866
							c0,2.436-1.371,3.927-3.359,3.927S64.253-40.761,64.253-43.197z M69.438-43.197c0-1.613-0.711-2.577-1.826-2.577
							c-1.117,0-1.826,0.964-1.826,2.577c0,1.604,0.709,2.628,1.826,2.628C68.728-40.569,69.438-41.593,69.438-43.197z"/>
						<path fill="#414A45" d="M73.96-46.92h2.059c2.293,0,3.715,1.188,3.715,3.724c0,2.527-1.422,3.785-3.633,3.785H73.96V-46.92z
							 M75.927-40.619c1.4,0,2.273-0.751,2.273-2.578c0-1.836-0.873-2.526-2.273-2.526H75.46v5.104H75.927z"/>
						<path fill="#414A45" d="M82.721-46.92h1.5v7.509h-1.5V-46.92z"/>
						<path fill="#414A45" d="M87.588-46.92h1.533l2.182,3.998l0.75,1.623h0.051c-0.082-0.781-0.193-1.775-0.193-2.628v-2.993h1.422
							v7.509h-1.523l-2.172-4.019l-0.76-1.613h-0.051c0.07,0.812,0.182,1.756,0.182,2.618v3.014h-1.42V-46.92z"/>
						<path fill="#414A45" d="M96.331-43.135c0-2.477,1.604-3.928,3.602-3.928c1.086,0,1.836,0.467,2.324,0.965l-0.803,0.953
							c-0.365-0.354-0.791-0.629-1.471-0.629c-1.248,0-2.121,0.975-2.121,2.588c0,1.634,0.752,2.617,2.223,2.617
							c0.365,0,0.73-0.101,0.943-0.283v-1.481H99.7v-1.229h2.668v3.39c-0.508,0.497-1.391,0.902-2.436,0.902
							C97.883-39.27,96.331-40.629,96.331-43.135z"/>
					</g>
				</g>
				<g>
					<rect x="30.373" y="-31.917" fill="#F4F5F5" width="45.697" height="9.823"/>
				</g>
				<g>
					<rect x="82.405" y="-31.917" fill="#F4F5F5" width="45.695" height="9.823"/>
				</g>
				<g>
					<rect x="30.373" y="-31.917" fill="none" stroke="#414A45" stroke-miterlimit="10" width="45.697" height="9.823"/>
				</g>
				<g>
					<path fill="#414A45" d="M43.593-25.297l0.461-0.554c0.289,0.266,0.67,0.445,1.021,0.445c0.42,0,0.643-0.18,0.643-0.462
						c0-0.299-0.246-0.391-0.604-0.543l-0.539-0.229c-0.406-0.168-0.814-0.494-0.814-1.081c0-0.657,0.576-1.162,1.391-1.162
						c0.467,0,0.936,0.185,1.262,0.516l-0.408,0.506c-0.256-0.212-0.521-0.332-0.854-0.332c-0.352,0-0.58,0.158-0.58,0.424
						c0,0.288,0.287,0.392,0.629,0.527l0.527,0.223c0.488,0.201,0.811,0.511,0.811,1.092c0,0.657-0.549,1.217-1.479,1.217
						C44.522-24.71,43.983-24.922,43.593-25.297z"/>
					<path fill="#414A45" d="M49.003-28.138h-1.131v-0.668h3.074v0.668h-1.141v3.352h-0.803V-28.138z"/>
					<path fill="#414A45" d="M54.319-25.819h-1.303l-0.283,1.032h-0.814l1.287-4.02h0.945l1.293,4.02h-0.842L54.319-25.819z
						 M54.146-26.444l-0.119-0.439c-0.125-0.418-0.232-0.88-0.354-1.314h-0.021c-0.102,0.439-0.223,0.896-0.342,1.314l-0.119,0.439
						H54.146z"/>
					<path fill="#414A45" d="M59.187-24.787l-0.826-1.521h-0.559v1.521h-0.805v-4.02h1.402c0.842,0,1.51,0.293,1.51,1.217
						c0,0.603-0.305,0.978-0.766,1.157l0.939,1.646H59.187z M57.802-26.943h0.521c0.516,0,0.799-0.218,0.799-0.646
						c0-0.435-0.283-0.581-0.799-0.581h-0.521V-26.943z"/>
					<path fill="#414A45" d="M62.478-28.138h-1.129v-0.668h3.074v0.668h-1.141v3.352h-0.805V-28.138z"/>
				</g>
				<g>
					<rect x="82.405" y="-31.917" fill="none" stroke="#414A45" stroke-miterlimit="10" width="45.695" height="9.823"/>
				</g>
				<g>
					<path fill="#414A45" d="M95.624-25.297l0.461-0.554c0.287,0.266,0.668,0.445,1.021,0.445c0.418,0,0.641-0.18,0.641-0.462
						c0-0.299-0.244-0.391-0.604-0.543l-0.537-0.229c-0.408-0.168-0.814-0.494-0.814-1.081c0-0.657,0.576-1.162,1.391-1.162
						c0.467,0,0.934,0.185,1.26,0.516l-0.408,0.506c-0.254-0.212-0.521-0.332-0.852-0.332c-0.354,0-0.582,0.158-0.582,0.424
						c0,0.288,0.289,0.392,0.631,0.527l0.527,0.223c0.488,0.201,0.809,0.511,0.809,1.092c0,0.657-0.549,1.217-1.479,1.217
						C96.551-24.71,96.014-24.922,95.624-25.297z"/>
					<path fill="#414A45" d="M101.032-28.138h-1.129v-0.668h3.074v0.668h-1.141v3.352h-0.805V-28.138z"/>
					<path fill="#414A45" d="M106.35-25.819h-1.305l-0.281,1.032h-0.814l1.287-4.02h0.945l1.293,4.02h-0.842L106.35-25.819z
						 M106.176-26.444l-0.119-0.439c-0.125-0.418-0.234-0.88-0.354-1.314h-0.021c-0.104,0.439-0.223,0.896-0.342,1.314l-0.121,0.439
						H106.176z"/>
					<path fill="#414A45" d="M111.217-24.787l-0.826-1.521h-0.561v1.521h-0.803v-4.02h1.4c0.842,0,1.512,0.293,1.512,1.217
						c0,0.603-0.305,0.978-0.768,1.157l0.941,1.646H111.217z M109.831-26.943h0.521c0.518,0,0.799-0.218,0.799-0.646
						c0-0.435-0.281-0.581-0.799-0.581h-0.521V-26.943z"/>
					<path fill="#414A45" d="M114.508-28.138h-1.131v-0.668h3.074v0.668h-1.141v3.352h-0.803V-28.138z"/>
				</g>
			</g>
		</g>
	</g>
	<g>
		<g>
			<g id="XMLID_574_">
				<g>
					<path fill="#72CCD2" d="M90.266,9.398c7.291,0,13.473,4.651,15.791,11.139h-6.529C98.188,14.049,94.555,9.41,90.266,9.398z"/>
					<path fill="#72CCD2" d="M106.057,31.824c-2.318,6.488-8.512,11.14-15.805,11.14c4.289,0,7.936-4.651,9.275-11.14H106.057z"/>
					<path fill="#72CCD2" d="M106.057,20.537c0.631,1.757,0.979,3.66,0.979,5.643c0,1.985-0.348,3.889-0.979,5.645h-6.529
						c0.391-1.756,0.59-3.659,0.59-5.645c0-1.982-0.199-3.886-0.59-5.643H106.057z"/>
					<path fill="#72CCD2" d="M99.528,31.824c-1.34,6.488-4.986,11.14-9.275,11.14h-0.014l0.014-0.228V31.824H99.528z"/>
					<path fill="#72CCD2" d="M99.528,20.537c0.391,1.757,0.59,3.66,0.59,5.643c0,1.985-0.199,3.889-0.59,5.645h-9.275V20.537H99.528
						z"/>
					<path fill="#72CCD2" d="M80.989,31.824c1.342,6.488,4.988,11.126,9.25,11.14c-7.266,0-13.446-4.638-15.764-11.099l0.12-0.041
						H80.989z"/>
					<path fill="#72CCD2" d="M90.252,42.736l-0.014,0.228c-4.262-0.014-7.908-4.651-9.25-11.14h9.264V42.736z"/>
					<path fill="#72CCD2" d="M90.252,20.537v11.287h-9.264C80.6,30.068,80.4,28.165,80.4,26.179c0-1.982,0.2-3.886,0.589-5.643
						H90.252z"/>
					<path fill="#72CCD2" d="M74.595,20.537h6.394c-0.389,1.757-0.589,3.66-0.589,5.643c0,1.985,0.2,3.889,0.589,5.645h-6.394
						l-0.12,0.041c-0.645-1.771-0.992-3.688-0.992-5.686c0-1.996,0.348-3.914,0.992-5.682L74.595,20.537z"/>
					<path fill="#72CCD2" d="M90.252,9.398c-4.264,0-7.922,4.651-9.264,11.139h-6.394l-0.12-0.039
						C76.793,14.021,82.985,9.398,90.252,9.398z"/>
					<path fill="#72CCD2" d="M90.252,9.625v10.911h-9.264c1.342-6.487,5-11.139,9.264-11.139h0.014L90.252,9.625z"/>
					<path fill="#72CCD2" d="M90.266,9.398c4.289,0.012,7.922,4.651,9.262,11.139h-9.275V9.625L90.266,9.398z"/>
				</g>
				<g>
					<path fill="none" stroke="#414A45" stroke-linejoin="round" stroke-miterlimit="10" d="M106.206,31.824
						c0.629-2.186,0.736-2.774,0.816-3.378c0.039-0.241,0.068-0.47,0.094-0.711c0-0.095,0-0.188,0.012-0.282
						c0.016-0.16,0.029-0.32,0.041-0.482c0-0.254,0.014-0.521,0.014-0.791c0-0.268-0.014-0.535-0.014-0.803
						c-0.012-0.162-0.025-0.322-0.041-0.483c-0.012-0.094-0.012-0.175-0.012-0.269c-0.025-0.241-0.055-0.469-0.094-0.711
						c-0.121-0.883-0.309-1.741-0.816-3.377c-0.096-0.269-0.189-0.523-0.295-0.779v-0.012c-1.275-3.083-3.42-5.696-6.127-7.56
						c-2.709-1.85-5.992-2.937-9.518-2.937h-0.725v0.026c-6.742,0.282-12.48,4.531-14.934,10.47l-0.025,0.081
						c-0.523,1.287-0.898,2.653-1.086,4.075c0,0.012,0,0.025-0.014,0.04c-0.027,0.228-0.053,0.455-0.066,0.669
						c-0.014,0.107-0.027,0.203-0.027,0.296c-0.014,0.161-0.026,0.308-0.026,0.47c-0.014,0.268-0.027,0.535-0.027,0.803
						c0,0.27,0.014,0.537,0.027,0.806c0,0.147,0.013,0.308,0.026,0.456c0,0.106,0.014,0.199,0.027,0.294
						c0.014,0.229,0.039,0.455,0.066,0.671c0.014,0.025,0.014,0.04,0.014,0.053c0.188,1.395,0.55,2.734,1.059,3.996l0.053,0.146
						c1.234,2.977,3.272,5.524,5.859,7.372c2.587,1.837,5.698,2.965,9.075,3.111v0.014h0.725c7.051,0,13.109-4.344,15.645-10.497
						C106.016,32.347,106.11,32.092,106.206,31.824z"/>
					<path fill="none" stroke="#414A45" stroke-linejoin="round" stroke-miterlimit="10" d="M90.252,42.963
						c7.293,0,13.486-4.651,15.805-11.14c0.631-1.756,0.979-3.659,0.979-5.645c0-1.982-0.348-3.886-0.979-5.643
						c-2.318-6.487-8.5-11.139-15.791-11.139"/>
					<path fill="none" stroke="#414A45" stroke-linejoin="round" stroke-miterlimit="10" d="M90.252,9.398
						c-7.268,0-13.459,4.623-15.778,11.1c-0.645,1.768-0.992,3.686-0.992,5.682c0,1.998,0.348,3.915,0.992,5.686
						c2.318,6.461,8.499,11.099,15.764,11.099"/>
					<path fill="none" stroke="#414A45" stroke-linejoin="round" stroke-miterlimit="10" d="M99.528,31.824
						c0.391-1.756,0.59-3.659,0.59-5.645c0-1.982-0.199-3.886-0.59-5.643c-1.34-6.487-4.973-11.127-9.262-11.139h-0.014
						c-4.264,0-7.922,4.651-9.264,11.139c-0.389,1.757-0.589,3.66-0.589,5.643c0,1.985,0.2,3.889,0.589,5.645
						c1.342,6.488,4.988,11.126,9.25,11.14h0.014C94.542,42.963,98.188,38.312,99.528,31.824z"/>
					<polyline fill="none" stroke="#414A45" stroke-linejoin="round" stroke-miterlimit="10" points="90.252,9.625 90.252,20.537 
						90.252,31.824 90.252,42.736 					"/>
					<polyline fill="none" stroke="#414A45" stroke-linejoin="round" stroke-miterlimit="10" points="74.595,20.537 80.989,20.537 
						90.252,20.537 99.528,20.537 106.057,20.537 106.206,20.537 106.458,20.537 					"/>
					<polyline fill="none" stroke="#414A45" stroke-linejoin="round" stroke-miterlimit="10" points="74.595,31.824 80.989,31.824 
						90.252,31.824 99.528,31.824 106.057,31.824 106.206,31.824 106.458,31.824 					"/>
				</g>
			</g>
		</g>
		<g>
			<path fill="none" stroke="#414A45" stroke-linecap="round" stroke-linejoin="round" stroke-miterlimit="10" d="M116.424,19.257
				c-0.459-0.405-1.154-0.371-1.547,0.072c-0.389,0.445-0.332,1.137,0.129,1.542c0.459,0.403,1.148,0.369,1.543-0.076
				C116.938,20.351,116.883,19.659,116.424,19.257z"/>
			<g>
				<g>
					<path fill="none" stroke="#414A45" stroke-linecap="round" stroke-linejoin="round" stroke-miterlimit="10" d="M114.555,16.144
						c1.307-0.072,2.561,0.371,3.541,1.25c0.977,0.877,1.557,2.085,1.627,3.402"/>
				</g>
			</g>
			<path fill="none" stroke="#414A45" stroke-linecap="round" stroke-linejoin="round" stroke-miterlimit="10" d="M125.303,20.493
				c-0.295-5.25-4.385-9.396-9.438-9.898c-0.531-0.052-1.07-0.064-1.617-0.035"/>
			<path fill="none" stroke="#414A45" stroke-linecap="round" stroke-linejoin="round" stroke-miterlimit="10" d="M114.202,13.221
				c4.334-0.03,8.008,3.268,8.471,7.599"/>
		</g>
		<g>
			<g>
				<circle fill="#FCBF10" cx="29.607" cy="19.177" r="2.455"/>
				<circle fill="none" stroke="#414A45" stroke-miterlimit="10" cx="29.607" cy="19.177" r="2.455"/>
			</g>
			<g>
				<circle fill="#DFE3E5" cx="35.492" cy="15.298" r="1.848"/>
				<circle fill="none" stroke="#414A45" stroke-miterlimit="10" cx="35.492" cy="15.298" r="1.848"/>
			</g>
			<g>
				<line fill="none" stroke="#414A45" stroke-miterlimit="10" x1="58.792" y1="13.946" x2="44.156" y2="13.946"/>
				<line fill="none" stroke="#414A45" stroke-miterlimit="10" x1="43.254" y1="13.946" x2="41.098" y2="13.946"/>
				<line fill="none" stroke="#414A45" stroke-miterlimit="10" x1="38.959" y1="17.497" x2="48.049" y2="17.497"/>
				<line fill="none" stroke="#414A45" stroke-miterlimit="10" x1="48.951" y1="17.497" x2="51.105" y2="17.497"/>
			</g>
		</g>
		<g>
			<g>
				<circle fill="#FCBF10" cx="184.386" cy="109.045" r="2.455"/>
				<circle fill="none" stroke="#414A45" stroke-miterlimit="10" cx="184.386" cy="109.045" r="2.455"/>
			</g>
			<g>
				<circle fill="#DFE3E5" cx="178.502" cy="105.166" r="1.848"/>
				<circle fill="none" stroke="#414A45" stroke-miterlimit="10" cx="178.502" cy="105.166" r="1.848"/>
			</g>
			<g>
				<line fill="none" stroke="#414A45" stroke-miterlimit="10" x1="155.202" y1="103.814" x2="169.838" y2="103.814"/>
				<line fill="none" stroke="#414A45" stroke-miterlimit="10" x1="170.741" y1="103.814" x2="172.897" y2="103.814"/>
				<line fill="none" stroke="#414A45" stroke-miterlimit="10" x1="175.036" y1="107.365" x2="165.946" y2="107.365"/>
				<line fill="none" stroke="#414A45" stroke-miterlimit="10" x1="165.043" y1="107.365" x2="162.889" y2="107.365"/>
			</g>
		</g>
		<g>
			<polyline fill="none" stroke="#414A45" stroke-miterlimit="10" points="13.117,70.922 3.594,70.944 5.335,61.583 			"/>
			<g>
				<path fill="#FFFFFF" d="M14.509,69.763c0.64,0.77,0.534,1.91-0.235,2.551c-0.769,0.64-1.909,0.537-2.55-0.233
					c-0.641-0.766-0.534-1.909,0.233-2.549S13.866,68.997,14.509,69.763z"/>
				<path fill="none" stroke="#414A45" stroke-miterlimit="10" d="M14.509,69.763c0.64,0.77,0.534,1.91-0.235,2.551
					c-0.769,0.64-1.909,0.537-2.55-0.233c-0.641-0.766-0.534-1.909,0.233-2.549S13.866,68.997,14.509,69.763z"/>
			</g>
			<g>
				<path fill="#FFFFFF" d="M6.723,60.422c0.641,0.768,0.535,1.912-0.231,2.55c-0.769,0.64-1.91,0.535-2.55-0.231
					c-0.641-0.768-0.533-1.911,0.234-2.552C4.942,59.552,6.084,59.654,6.723,60.422z"/>
				<path fill="none" stroke="#414A45" stroke-miterlimit="10" d="M6.723,60.422c0.641,0.768,0.535,1.912-0.231,2.55
					c-0.769,0.64-1.91,0.535-2.55-0.231c-0.641-0.768-0.533-1.911,0.234-2.552C4.942,59.552,6.084,59.654,6.723,60.422z"/>
			</g>
			<g>
				<path fill="#FFFFFF" d="M4.981,69.783c0.642,0.771,0.541,1.909-0.23,2.552c-0.767,0.641-1.908,0.536-2.548-0.231
					c-0.64-0.771-0.535-1.91,0.234-2.551C3.203,68.911,4.345,69.016,4.981,69.783z"/>
				<path fill="none" stroke="#414A45" stroke-miterlimit="10" d="M4.981,69.783c0.642,0.771,0.541,1.909-0.23,2.552
					c-0.767,0.641-1.908,0.536-2.548-0.231c-0.64-0.771-0.535-1.91,0.234-2.551C3.203,68.911,4.345,69.016,4.981,69.783z"/>
			</g>
		</g>
		<g>
			<g>
				<path fill="#6D6E70" d="M127.79,118.212c0.467,0,0.842-0.376,0.842-0.841c0-1.076-0.449-4.448-4.598-4.448h-22.979
					c-0.465,0-0.842,0.377-0.842,0.841s0.377,0.842,0.842,0.842h22.979c2.914,0,2.914,2.245,2.914,2.766
					C126.948,117.836,127.327,118.212,127.79,118.212z"/>
				<path fill="none" stroke="#414A45" stroke-miterlimit="10" d="M127.79,118.212c0.467,0,0.842-0.376,0.842-0.841
					c0-1.076-0.449-4.448-4.598-4.448h-22.979c-0.465,0-0.842,0.377-0.842,0.841s0.377,0.842,0.842,0.842h22.979
					c2.914,0,2.914,2.245,2.914,2.766C126.948,117.836,127.327,118.212,127.79,118.212z"/>
				<path fill="#6D6E70" d="M106.461,118.212c-0.463,0-0.84-0.376-0.84-0.841c0-1.076,0.447-4.448,4.598-4.448h22.979
					c0.465,0,0.842,0.377,0.842,0.841s-0.377,0.842-0.842,0.842h-22.979c-2.914,0-2.914,2.245-2.914,2.766
					C107.305,117.836,106.926,118.212,106.461,118.212z"/>
				<path fill="none" stroke="#414A45" stroke-miterlimit="10" d="M106.461,118.212c-0.463,0-0.84-0.376-0.84-0.841
					c0-1.076,0.447-4.448,4.598-4.448h22.979c0.465,0,0.842,0.377,0.842,0.841s-0.377,0.842-0.842,0.842h-22.979
					c-2.914,0-2.914,2.245-2.914,2.766C107.305,117.836,106.926,118.212,106.461,118.212z"/>
			</g>
			<g id="XMLID_570_">
				<g>
					<path opacity="0.5" fill="#F1F1F2" d="M133.614,111.721v4.693c0,0.853-0.686,1.547-1.539,1.547h-9.996
						c-0.846,0-1.541-0.694-1.541-1.547v-4.693c0-0.853,0.695-1.549,1.541-1.549h9.996
						C132.928,110.172,133.614,110.869,133.614,111.721z"/>
					<path opacity="0.5" fill="#F1F1F2" d="M113.655,111.721v4.693c0,0.853-0.686,1.547-1.539,1.547h-9.998
						c-0.844,0-1.537-0.694-1.537-1.547v-4.693c0-0.853,0.693-1.549,1.537-1.549h9.998
						C112.969,110.172,113.655,110.869,113.655,111.721z"/>
					<path fill="#6D6E70" d="M113.655,116.415v-4.693c0-0.853-0.686-1.549-1.539-1.549h-9.998c-0.844,0-1.537,0.696-1.537,1.549
						v4.693c0,0.853,0.693,1.547,1.537,1.547h9.998C112.969,117.961,113.655,117.267,113.655,116.415z M133.614,116.415v-4.693
						c0-0.853-0.686-1.549-1.539-1.549h-9.996c-0.846,0-1.541,0.696-1.541,1.549v4.693c0,0.853,0.695,1.547,1.541,1.547h9.996
						C132.928,117.961,133.614,117.267,133.614,116.415z M136.383,113.227c0.461,0,0.838,0.377,0.838,0.837
						c0,0.467-0.377,0.845-0.838,0.845h-1.078v1.506c0,1.781-1.447,3.229-3.23,3.229h-9.996c-1.773,0-3.221-1.448-3.221-3.229
						v-1.506h-3.521v1.506c0,1.781-1.439,3.229-3.221,3.229h-9.998c-1.773,0-3.221-1.448-3.221-3.229v-1.506H97.87
						c-0.461,0-0.838-0.378-0.838-0.845c0-0.46,0.377-0.837,0.838-0.837h1.027v-1.506c0-1.781,1.447-3.229,3.221-3.229h9.998
						c1.781,0,3.221,1.448,3.221,3.229v1.506h3.521v-1.506c0-1.781,1.447-3.229,3.221-3.229h9.996c1.783,0,3.23,1.448,3.23,3.229
						v1.506H136.383z"/>
				</g>
				<g>
					<path fill="none" stroke="#414A45" stroke-miterlimit="10" d="M136.383,113.227h-1.078v-1.506c0-1.781-1.447-3.229-3.23-3.229
						h-9.996c-1.773,0-3.221,1.448-3.221,3.229v1.506h-3.521v-1.506c0-1.781-1.439-3.229-3.221-3.229h-9.998
						c-1.773,0-3.221,1.448-3.221,3.229v1.506H97.87c-0.461,0-0.838,0.377-0.838,0.837c0,0.467,0.377,0.845,0.838,0.845h1.027v1.506
						c0,1.781,1.447,3.229,3.221,3.229h9.998c1.781,0,3.221-1.448,3.221-3.229v-1.506h3.521v1.506c0,1.781,1.447,3.229,3.221,3.229
						h9.996c1.783,0,3.23-1.448,3.23-3.229v-1.506h1.078c0.461,0,0.838-0.378,0.838-0.845
						C137.221,113.604,136.844,113.227,136.383,113.227z"/>
					<path fill="none" stroke="#414A45" stroke-miterlimit="10" d="M113.655,116.415c0,0.853-0.686,1.547-1.539,1.547h-9.998
						c-0.844,0-1.537-0.694-1.537-1.547v-4.693c0-0.853,0.693-1.549,1.537-1.549h9.998c0.854,0,1.539,0.696,1.539,1.549V116.415z"/>
					<path fill="none" stroke="#414A45" stroke-miterlimit="10" d="M133.614,116.415c0,0.853-0.686,1.547-1.539,1.547h-9.996
						c-0.846,0-1.541-0.694-1.541-1.547v-4.693c0-0.853,0.695-1.549,1.541-1.549h9.996c0.854,0,1.539,0.696,1.539,1.549V116.415z"/>
				</g>
			</g>
		</g>
		<g>
			<g>
				<g>
					<path fill="#FFFFFF" d="M93.028,119.712c-4.941,0-4.91-11.333-4.91-11.333V94.436H70.363v13.943c0,0,0.029,11.333-4.914,11.333
						H93.028z"/>
				</g>
			</g>
			<g>
				<g>
					<path fill="none" stroke="#414A45" stroke-miterlimit="10" d="M93.028,119.712c-4.941,0-4.91-11.333-4.91-11.333V94.436H70.363
						v13.943c0,0,0.029,11.333-4.914,11.333H93.028z"/>
				</g>
			</g>
			<g>
				<path fill="#FFFFFF" d="M138.782,100.552c0,1.539-1.248,2.786-2.787,2.786H22.482c-1.539,0-2.787-1.247-2.787-2.786V31.104
					c0-1.539,1.248-2.786,2.787-2.786h113.512c1.539,0,2.787,1.247,2.787,2.786V100.552z"/>
				<path fill="none" stroke="#414A45" stroke-miterlimit="10" d="M138.782,100.552c0,1.539-1.248,2.786-2.787,2.786H22.482
					c-1.539,0-2.787-1.247-2.787-2.786V31.104c0-1.539,1.248-2.786,2.787-2.786h113.512c1.539,0,2.787,1.247,2.787,2.786V100.552z"
					/>
			</g>
			<g id="XMLID_576_">
				<rect x="24.297" y="32.919" fill="#5CC9EB" width="109.885" height="61.083"/>
			</g>
			<g id="XMLID_575_">
				<rect x="24.297" y="32.919" fill="none" stroke="#414A45" stroke-miterlimit="10" width="109.885" height="61.083"/>
			</g>
			<line fill="none" stroke="#414A45" stroke-miterlimit="10" x1="74.902" y1="97.796" x2="83.575" y2="97.796"/>
		</g>
		<g>
			<g id="XMLID_577_">
				<g>
					<rect x="9.348" y="25.593" fill="#F6B519" width="57.087" height="8.165"/>
					<rect x="9.348" y="33.758" fill="#FFFFFF" width="57.087" height="30.169"/>
				</g>
				<g>
					<polygon fill="none" stroke="#414A45" stroke-miterlimit="10" points="66.435,33.758 66.435,63.927 9.348,63.927 9.348,33.758 
						9.348,25.593 66.435,25.593 					"/>
					<polyline fill="none" stroke="#414A45" stroke-miterlimit="10" points="9.083,33.758 9.348,33.758 66.435,33.758 					"/>
				</g>
			</g>
			<circle fill="#F4EFE2" cx="51.958" cy="29.502" r="1.385"/>
			<circle fill="#F4EFE2" cx="56.114" cy="29.502" r="1.384"/>
			<circle fill="#F4EFE2" cx="60.267" cy="29.502" r="1.385"/>
			<circle fill="none" stroke="#414A45" stroke-miterlimit="10" cx="51.958" cy="29.502" r="1.385"/>
			<circle fill="none" stroke="#414A45" stroke-miterlimit="10" cx="56.114" cy="29.502" r="1.384"/>
			<circle fill="none" stroke="#414A45" stroke-miterlimit="10" cx="60.267" cy="29.502" r="1.385"/>
			<g>
				<line fill="none" stroke="#414A45" stroke-miterlimit="10" x1="13.927" y1="38.677" x2="22.562" y2="38.677"/>
				<line fill="none" stroke="#414A45" stroke-miterlimit="10" x1="29.288" y1="38.677" x2="37.924" y2="38.677"/>
				<line fill="none" stroke="#414A45" stroke-miterlimit="10" x1="13.927" y1="44.311" x2="33.757" y2="44.311"/>
				<line fill="none" stroke="#414A45" stroke-miterlimit="10" x1="13.927" y1="48.538" x2="25.888" y2="48.538"/>
				<line fill="none" stroke="#414A45" stroke-miterlimit="10" x1="27.161" y1="48.538" x2="29.321" y2="48.538"/>
				<line fill="none" stroke="#414A45" stroke-miterlimit="10" x1="23.548" y1="38.677" x2="26.51" y2="38.677"/>
				<line fill="none" stroke="#414A45" stroke-miterlimit="10" x1="27.334" y1="38.677" x2="28.259" y2="38.677"/>
				<line fill="none" stroke="#414A45" stroke-miterlimit="10" x1="50.754" y1="41.494" x2="26.108" y2="41.494"/>
				<line fill="none" stroke="#414A45" stroke-miterlimit="10" x1="24.389" y1="41.494" x2="19.229" y2="41.494"/>
				<line fill="none" stroke="#414A45" stroke-miterlimit="10" x1="17.795" y1="41.494" x2="13.927" y2="41.494"/>
			</g>
		</g>
		<g>
			<g id="XMLID_578_">
				<g>
					<rect x="36.896" y="56.789" fill="#79BDE8" width="42.773" height="6.118"/>
					<rect x="36.896" y="62.907" fill="#FFFFFF" width="42.773" height="22.604"/>
				</g>
				<g>
					<polygon fill="none" stroke="#414A45" stroke-miterlimit="10" points="79.67,62.907 79.67,85.511 36.896,85.511 36.896,62.907 
						36.896,56.789 79.67,56.789 					"/>
					<polyline fill="none" stroke="#414A45" stroke-miterlimit="10" points="36.698,62.907 36.896,62.907 79.67,62.907 					"/>
				</g>
			</g>
			<circle fill="#F4EFE2" cx="68.824" cy="59.717" r="1.038"/>
			<circle fill="#F4EFE2" cx="71.938" cy="59.717" r="1.037"/>
			<circle fill="#F4EFE2" cx="75.049" cy="59.717" r="1.037"/>
			<circle fill="none" stroke="#414A45" stroke-miterlimit="10" cx="68.824" cy="59.717" r="1.038"/>
			<circle fill="none" stroke="#414A45" stroke-miterlimit="10" cx="71.938" cy="59.717" r="1.037"/>
			<circle fill="none" stroke="#414A45" stroke-miterlimit="10" cx="75.049" cy="59.717" r="1.037"/>
			<g>
				<line fill="none" stroke="#414A45" stroke-miterlimit="10" x1="40.328" y1="66.592" x2="48.435" y2="66.592"/>
				<line fill="none" stroke="#414A45" stroke-miterlimit="10" x1="54.75" y1="66.592" x2="68.342" y2="66.592"/>
				<line fill="none" stroke="#414A45" stroke-miterlimit="10" x1="40.328" y1="70.813" x2="58.944" y2="70.813"/>
				<line fill="none" stroke="#414A45" stroke-miterlimit="10" x1="40.328" y1="73.98" x2="51.557" y2="73.98"/>
				<line fill="none" stroke="#414A45" stroke-miterlimit="10" x1="52.753" y1="73.98" x2="58.205" y2="73.98"/>
				<line fill="none" stroke="#414A45" stroke-miterlimit="10" x1="49.36" y1="66.592" x2="52.141" y2="66.592"/>
				<line fill="none" stroke="#414A45" stroke-miterlimit="10" x1="52.915" y1="66.592" x2="53.783" y2="66.592"/>
				<line fill="none" stroke="#414A45" stroke-miterlimit="10" x1="74.902" y1="68.703" x2="51.764" y2="68.703"/>
				<line fill="none" stroke="#414A45" stroke-miterlimit="10" x1="50.149" y1="68.703" x2="45.306" y2="68.703"/>
				<line fill="none" stroke="#414A45" stroke-miterlimit="10" x1="43.959" y1="68.703" x2="40.328" y2="68.703"/>
			</g>
		</g>
		<g>
			<rect x="86.741" y="49.937" fill="#FFFFFF" width="40.787" height="29.271"/>
			<g>
				<g>
					<g>
						<g id="XMLID_573_">
							<g>
								<polygon fill="#F6921E" points="110.178,61.729 104.458,65.402 104.458,58.119 								"/>
								<path fill="#CEEBEA" d="M94.452,72.015h-7.553H86.68V50.067h40.908v21.948h-0.328H94.452z M104.458,65.402l5.721-3.673
									l-5.721-3.61V65.402z"/>
								<path fill="#72CCD2" d="M119.512,74.003c-0.854,0-1.549,0.697-1.549,1.549c0,0.854,0.695,1.551,1.549,1.551
									s1.549-0.696,1.549-1.551C121.061,74.701,120.366,74.003,119.512,74.003z"/>
							</g>
							<g>
								<polygon fill="none" stroke="#414A45" stroke-miterlimit="10" points="104.458,58.119 110.178,61.729 104.458,65.402 
																	"/>
								<polygon fill="none" stroke="#414A45" stroke-miterlimit="10" points="127.588,75.552 127.588,79.079 94.452,79.079 
									86.68,79.079 86.68,72.015 86.68,50.067 127.588,50.067 127.588,72.015 								"/>
								<polyline fill="none" stroke="#414A45" stroke-miterlimit="10" points="86.899,72.015 94.452,72.015 127.26,72.015 								
									"/>
								<polyline fill="none" stroke="#414A45" stroke-miterlimit="10" points="94.452,71.88 94.452,72.015 94.452,75.552 
									94.452,78.847 								"/>
								<line fill="none" stroke="#414A45" stroke-miterlimit="10" x1="121.061" y1="75.552" x2="125.942" y2="75.552"/>
								<line fill="none" stroke="#414A45" stroke-miterlimit="10" x1="96.172" y1="75.552" x2="117.963" y2="75.552"/>
								<path fill="none" stroke="#414A45" stroke-miterlimit="10" d="M121.061,75.552c0-0.852-0.695-1.549-1.549-1.549
									s-1.549,0.697-1.549,1.549c0,0.854,0.695,1.551,1.549,1.551S121.061,76.407,121.061,75.552z"/>
								<line fill="none" stroke="#414A45" stroke-miterlimit="10" x1="89.413" y1="73.87" x2="89.413" y2="77.103"/>
								<line fill="none" stroke="#414A45" stroke-miterlimit="10" x1="91.549" y1="73.87" x2="91.549" y2="77.103"/>
							</g>
						</g>
					</g>
				</g>
			</g>
		</g>
		<g display="none">
			<path display="inline" fill="#FFFFFF" d="M64.677,86.439l-2.822,7.306l-0.479-0.187l7.64-19.73
				c0.553-1.43-0.032-2.99-1.311-3.485c-1.275-0.494-2.76,0.265-3.312,1.694l-6.67,17.227c-0.084,0.162-0.197,0.264-0.276,0.234
				c-0.06-0.022-0.079-0.118-0.071-0.236l2.196-5.668c0.526-1.357-0.028-2.838-1.237-3.307c-1.207-0.467-2.613,0.254-3.138,1.612
				l-2.183,5.634c-0.077,0.117-0.167,0.185-0.232,0.159c-0.054-0.022-0.075-0.103-0.071-0.204l1.828-4.725
				c0.517-1.332,0.004-2.77-1.141-3.213c-1.146-0.443-2.493,0.273-3.009,1.607l-1.848,4.773c-0.054,0.051-0.108,0.076-0.152,0.059
				c-0.066-0.023-0.088-0.139-0.064-0.281l1.521-3.93c0.506-1.307,0.075-2.688-0.96-3.09c-1.036-0.4-2.285,0.331-2.79,1.637
				l-5.927,15.311c-0.483,1.248,0.164,2.707,1.127,3.187l-2.147,5.548l14.562,5.637l1.6-4.131l1.188,0.457l0.012-0.008
				c4.111,1.045,6.09-3.037,6.09-3.037l6.78-17.51C65.722,84.199,64.677,86.439,64.677,86.439z"/>
			<path display="inline" fill="none" stroke="#414A45" stroke-miterlimit="10" d="M64.677,86.439l-2.822,7.306l-0.479-0.187
				l7.64-19.73c0.553-1.43-0.032-2.99-1.311-3.485c-1.275-0.494-2.76,0.265-3.312,1.694l-6.67,17.227
				c-0.084,0.162-0.197,0.264-0.276,0.234c-0.06-0.022-0.079-0.118-0.071-0.236l2.196-5.668c0.526-1.357-0.028-2.838-1.237-3.307
				c-1.207-0.467-2.613,0.254-3.138,1.612l-2.183,5.634c-0.077,0.117-0.167,0.185-0.232,0.159c-0.054-0.022-0.075-0.103-0.071-0.204
				l1.828-4.725c0.517-1.332,0.004-2.77-1.141-3.213c-1.146-0.443-2.493,0.273-3.009,1.607l-1.848,4.773
				c-0.054,0.051-0.108,0.076-0.152,0.059c-0.066-0.023-0.088-0.139-0.064-0.281l1.521-3.93c0.506-1.307,0.075-2.688-0.96-3.09
				c-1.036-0.4-2.285,0.331-2.79,1.637l-5.927,15.311c-0.483,1.248,0.164,2.707,1.127,3.187l-2.147,5.548l14.562,5.637l1.6-4.131
				l1.188,0.457l0.012-0.008c4.111,1.045,6.09-3.037,6.09-3.037l6.78-17.51C65.722,84.199,64.677,86.439,64.677,86.439z"/>
			
				<rect x="37.703" y="106.078" transform="matrix(-0.9325 -0.3611 0.3611 -0.9325 51.2557 224.9039)" display="inline" fill="#DFE3E5" width="17.872" height="3.171"/>
			
				<rect x="37.703" y="106.078" transform="matrix(-0.9325 -0.3611 0.3611 -0.9325 51.2557 224.9039)" display="inline" fill="none" stroke="#414A45" stroke-miterlimit="10" width="17.872" height="3.171"/>
			<polygon display="inline" fill="#DFE3E5" points="46.514,107.957 38.19,104.733 19.323,152.623 28.893,152.623 38.487,152.623 
				54.858,111.185 			"/>
			<polyline display="inline" fill="none" stroke="#414A45" stroke-miterlimit="10" points="38.487,152.623 54.858,111.185 
				46.514,107.957 38.19,104.733 19.323,152.623 			"/>
			<circle display="inline" fill="none" stroke="#414A45" stroke-miterlimit="10" cx="51.73" cy="112.659" r="1.049"/>
		</g>
		<g>
			<g>
				<g>
					<g>
						<polyline fill="none" stroke="#414A45" stroke-miterlimit="10" points="184.743,62.851 184.743,98.612 155.571,98.612 
							155.571,58.167 175.239,58.167 						"/>
					</g>
					<g>
						<g id="XMLID_580_">
							<g>
								<rect x="160.184" y="88.702" fill="#90D2C5" width="4.039" height="4.04"/>
								<rect x="160.184" y="80.11" fill="#7ED0E0" width="4.039" height="4.04"/>
								<rect x="160.184" y="71.528" fill="#7686C2" width="4.039" height="4.041"/>
								<rect x="160.184" y="62.937" fill="#F6B519" width="4.039" height="4.039"/>
							</g>
							<g>
								<rect x="160.184" y="62.937" fill="none" stroke="#414A45" stroke-miterlimit="10" width="4.039" height="4.039"/>
								<line fill="none" stroke="#414A45" stroke-miterlimit="10" x1="166.276" y1="63.414" x2="180.252" y2="63.414"/>
								<line fill="none" stroke="#414A45" stroke-miterlimit="10" x1="166.276" y1="66.369" x2="174.485" y2="66.369"/>
								<rect x="160.184" y="71.528" fill="none" stroke="#414A45" stroke-miterlimit="10" width="4.039" height="4.041"/>
								<line fill="none" stroke="#414A45" stroke-miterlimit="10" x1="166.276" y1="72.006" x2="180.252" y2="72.006"/>
								<line fill="none" stroke="#414A45" stroke-miterlimit="10" x1="166.276" y1="74.949" x2="174.485" y2="74.949"/>
								<rect x="160.184" y="80.11" fill="none" stroke="#414A45" stroke-miterlimit="10" width="4.039" height="4.04"/>
								<line fill="none" stroke="#414A45" stroke-miterlimit="10" x1="166.276" y1="80.598" x2="180.252" y2="80.598"/>
								<line fill="none" stroke="#414A45" stroke-miterlimit="10" x1="166.276" y1="83.541" x2="174.485" y2="83.541"/>
								<rect x="160.184" y="88.702" fill="none" stroke="#414A45" stroke-miterlimit="10" width="4.039" height="4.04"/>
								<line fill="none" stroke="#414A45" stroke-miterlimit="10" x1="166.276" y1="89.19" x2="180.252" y2="89.19"/>
								<line fill="none" stroke="#414A45" stroke-miterlimit="10" x1="166.276" y1="92.133" x2="174.485" y2="92.133"/>
							</g>
						</g>
					</g>
				</g>
				<polyline fill="none" stroke="#414A45" stroke-miterlimit="10" points="177.952,57.11 180.93,60.386 187.579,54.233 				"/>
			</g>
			<g>
				<g id="XMLID_579_">
					<g>
						<path fill="#6D6E70" d="M150.551,58.889h-4.102c0-1.416,0.918-2.543,2.045-2.543
							C149.633,56.346,150.551,57.473,150.551,58.889z"/>
						<rect x="146.817" y="72.893" fill="#6D6E70" width="3.369" height="22.291"/>
						<polygon fill="#8D8F91" points="150.579,58.955 150.579,72.842 146.411,72.842 146.411,59.007 146.411,58.955 						"/>
					</g>
					<g>
						<polygon fill="none" stroke="#414A45" stroke-miterlimit="10" points="150.579,72.842 146.411,72.842 146.411,59.007 
							146.411,58.955 150.579,58.955 						"/>
						<path fill="none" stroke="#414A45" stroke-miterlimit="10" d="M148.495,56.346c-1.127,0-2.045,1.127-2.045,2.543h4.102
							C150.551,57.473,149.633,56.346,148.495,56.346z"/>
						<rect x="146.817" y="72.893" fill="none" stroke="#414A45" stroke-miterlimit="10" width="3.369" height="22.291"/>
						<polygon fill="none" stroke="#414A45" stroke-miterlimit="10" points="150.159,95.38 148.495,100.795 146.831,95.38 						"/>
						<polyline fill="none" stroke="#414A45" stroke-miterlimit="10" points="146.959,59.007 146.411,59.007 144.127,59.007 
							144.127,74.152 						"/>
					</g>
				</g>
			</g>
		</g>
		<g>
			<g>
				<g>
					<g>
						<polygon fill="#FFFFFF" points="95.928,54.11 95.928,41.928 78.717,41.903 78.717,54.084 						"/>
					</g>
				</g>
				<g>
					<polygon fill="none" stroke="#414A45" stroke-linejoin="round" stroke-miterlimit="10" points="95.928,54.11 95.928,41.928 
						78.717,41.903 78.717,54.084 					"/>
				</g>
				<g>
					<g>
						<polyline fill="none" stroke="#414A45" stroke-linejoin="round" stroke-miterlimit="10" points="78.77,54.01 87.292,46.582 
							95.813,54.01 						"/>
					</g>
				</g>
			</g>
			<g>
				<polygon fill="#FFFFFF" points="78.717,41.903 87.323,50.033 95.928,41.903 				"/>
				<polygon fill="none" stroke="#414A45" stroke-linejoin="round" stroke-miterlimit="10" points="78.717,41.903 87.323,50.033 
					95.928,41.903 				"/>
			</g>
		</g>
		<g>
			<g>
				<path fill="#F08E21" d="M172.272,26.078h-10.316c-0.234,1.358-0.846,3.111-2.406,3.26h14.932l0.018-0.029
					C173.073,29.045,172.499,27.381,172.272,26.078z"/>
				<path fill="none" stroke="#414A45" stroke-linejoin="round" stroke-miterlimit="10" d="M172.272,26.078h-10.316
					c-0.234,1.358-0.846,3.111-2.406,3.26h14.932l0.018-0.029C173.073,29.045,172.499,27.381,172.272,26.078z"/>
			</g>
			<g>
				<path fill="#F6B519" d="M162.583,29.337c-1.562-0.148-2.172-1.902-2.408-3.26H149.86c-0.238,1.357-0.846,3.111-2.406,3.26h-0.34
					v21.897h36.727V29.337H162.583z"/>
				<path fill="none" stroke="#414A45" stroke-linejoin="round" stroke-miterlimit="10" d="M162.583,29.337
					c-1.562-0.148-2.172-1.902-2.408-3.26H149.86c-0.238,1.357-0.846,3.111-2.406,3.26h-0.34v21.897h36.727V29.337H162.583z"/>
				
					<line fill="none" stroke="#414A45" stroke-linejoin="round" stroke-miterlimit="10" x1="173.231" y1="44.629" x2="180.77" y2="44.629"/>
				
					<line fill="none" stroke="#414A45" stroke-linejoin="round" stroke-miterlimit="10" x1="173.231" y1="46.068" x2="180.77" y2="46.068"/>
				
					<line fill="none" stroke="#414A45" stroke-linejoin="round" stroke-miterlimit="10" x1="177.422" y1="47.506" x2="180.77" y2="47.506"/>
			</g>
		</g>
		<g>
			<g id="XMLID_561_">
				<g>
					<path fill="#FFD457" d="M100.233,6.156c0,1.041-0.311,2.008-0.84,2.819l-0.004,0.004c-0.018,0.028-0.035,0.056-0.055,0.085
						l-4.256,6.426l-4.256-6.426c-0.02-0.029-0.037-0.057-0.057-0.085l-0.002-0.004c-0.529-0.812-0.84-1.778-0.84-2.819
						c0-2.847,2.307-5.154,5.154-5.154C97.924,1.001,100.233,3.309,100.233,6.156z M97.364,5.861c0-1.264-1.021-2.286-2.285-2.286
						s-2.287,1.022-2.287,2.286s1.023,2.287,2.287,2.287S97.364,7.125,97.364,5.861z"/>
				</g>
				<g>
					<path fill="none" stroke="#414A45" stroke-miterlimit="10" d="M99.393,8.975c0.529-0.812,0.84-1.778,0.84-2.819
						c0-2.847-2.309-5.154-5.154-5.154c-2.848,0-5.154,2.308-5.154,5.154c0,1.041,0.311,2.008,0.84,2.819l0.002,0.004
						c0.02,0.028,0.037,0.056,0.057,0.085l4.256,6.426l4.256-6.426c0.02-0.029,0.037-0.057,0.055-0.085L99.393,8.975z"/>
					<circle fill="none" stroke="#414A45" stroke-miterlimit="10" cx="95.078" cy="5.861" r="2.286"/>
				</g>
			</g>
		</g>
		<g>
			<g>
				<path fill="#FFFFFF" d="M132.7,49.955c0,3.076-2.494,5.57-5.57,5.57h-12.219c-3.076,0-5.57-2.494-5.57-5.57l0,0
					c0-3.076,2.494-5.57,5.57-5.57h12.219C130.206,44.384,132.7,46.878,132.7,49.955L132.7,49.955z"/>
				<path fill="none" stroke="#414A45" stroke-linecap="round" stroke-linejoin="round" stroke-miterlimit="10" d="M132.7,49.955
					c0,3.076-2.494,5.57-5.57,5.57h-12.219c-3.076,0-5.57-2.494-5.57-5.57l0,0c0-3.076,2.494-5.57,5.57-5.57h12.219
					C130.206,44.384,132.7,46.878,132.7,49.955L132.7,49.955z"/>
			</g>
			<g>
				<path fill="#414A45" stroke="#414A45" stroke-width="0.3" stroke-miterlimit="10" d="M115.176,47.29h1.363
					c1.078,0,1.797,0.359,1.797,1.404c0,1.012-0.719,1.482-1.764,1.482h-0.789v1.9h-0.607V47.29z M116.495,49.686
					c0.842,0,1.24-0.307,1.24-0.992c0-0.692-0.424-0.914-1.266-0.914h-0.686v1.906H116.495z"/>
				<path fill="#414A45" stroke="#414A45" stroke-width="0.3" stroke-miterlimit="10" d="M119.299,47.29h0.607v2.005h2.232V47.29
					h0.602v4.787h-0.602v-2.26h-2.232v2.26h-0.607V47.29z"/>
				<path fill="#414A45" stroke="#414A45" stroke-width="0.3" stroke-miterlimit="10" d="M124.047,47.29h1.365
					c1.078,0,1.797,0.359,1.797,1.404c0,1.012-0.719,1.482-1.764,1.482h-0.791v1.9h-0.607V47.29z M125.368,49.686
					c0.842,0,1.24-0.307,1.24-0.992c0-0.692-0.424-0.914-1.268-0.914h-0.686v1.906H125.368z"/>
			</g>
		</g>
		<g>
			<g>
				<path fill="#FFFFFF" d="M23.359,21.372c0,3.076-2.494,5.57-5.57,5.57H5.57c-3.076,0-5.57-2.494-5.57-5.57l0,0
					c0-3.076,2.494-5.57,5.57-5.57h12.219C20.865,15.801,23.359,18.295,23.359,21.372L23.359,21.372z"/>
				<path fill="none" stroke="#414A45" stroke-linecap="round" stroke-linejoin="round" stroke-miterlimit="10" d="M23.359,21.372
					c0,3.076-2.494,5.57-5.57,5.57H5.57c-3.076,0-5.57-2.494-5.57-5.57l0,0c0-3.076,2.494-5.57,5.57-5.57h12.219
					C20.865,15.801,23.359,18.295,23.359,21.372L23.359,21.372z"/>
			</g>
			<g>
				<path fill="#414A45" stroke="#414A45" stroke-width="0.2" stroke-miterlimit="10" d="M3.588,18.895h0.607V20.9h2.233v-2.005
					h0.601v4.787H6.429v-2.26H4.195v2.26H3.588V18.895z"/>
				<path fill="#414A45" stroke="#414A45" stroke-width="0.2" stroke-miterlimit="10" d="M9.336,19.405h-1.45v-0.51h3.507v0.51
					H9.943v4.277H9.336V19.405z"/>
				<path fill="#414A45" stroke="#414A45" stroke-width="0.2" stroke-miterlimit="10" d="M12.245,18.895h0.731l0.921,2.561
					c0.11,0.333,0.222,0.666,0.339,0.999h0.033c0.111-0.333,0.216-0.666,0.326-0.999l0.914-2.561h0.732v4.787h-0.568v-2.651
					c0-0.411,0.045-0.993,0.078-1.411h-0.026l-0.379,1.091l-0.907,2.488h-0.405l-0.907-2.488l-0.379-1.091h-0.026
					c0.026,0.418,0.071,1,0.071,1.411v2.651h-0.548V18.895z"/>
				<path fill="#414A45" stroke="#414A45" stroke-width="0.2" stroke-miterlimit="10" d="M17.542,18.895h0.607v4.271h2.09v0.516
					h-2.697V18.895z"/>
			</g>
		</g>
		<g>
			<g>
				<path fill="#FFFFFF" d="M123.504,36.188c0,3.076-2.494,5.57-5.57,5.57h-12.219c-3.076,0-5.57-2.494-5.57-5.57l0,0
					c0-3.076,2.494-5.57,5.57-5.57h12.219C121.01,30.618,123.504,33.112,123.504,36.188L123.504,36.188z"/>
				<path fill="none" stroke="#414A45" stroke-linecap="round" stroke-linejoin="round" stroke-miterlimit="10" d="M123.504,36.188
					c0,3.076-2.494,5.57-5.57,5.57h-12.219c-3.076,0-5.57-2.494-5.57-5.57l0,0c0-3.076,2.494-5.57,5.57-5.57h12.219
					C121.01,30.618,123.504,33.112,123.504,36.188L123.504,36.188z"/>
			</g>
			<g>
				<path fill="#414A45" stroke="#414A45" stroke-width="0.3" stroke-miterlimit="10" d="M106.319,35.776
					c0-1.548,0.906-2.488,2.121-2.488c0.582,0,1.039,0.288,1.312,0.595l-0.326,0.392c-0.248-0.268-0.568-0.457-0.979-0.457
					c-0.908,0-1.51,0.745-1.51,1.939c0,1.208,0.576,1.966,1.49,1.966c0.457,0,0.803-0.202,1.109-0.535l0.334,0.379
					c-0.379,0.438-0.85,0.686-1.471,0.686C107.213,38.251,106.319,37.331,106.319,35.776z"/>
				<path fill="#414A45" stroke="#414A45" stroke-width="0.3" stroke-miterlimit="10" d="M111.676,35.979h-1.326v-0.444h1.326
					v-1.424h0.477v1.424h1.324v0.444h-1.324v1.43h-0.477V35.979z"/>
				<path fill="#414A45" stroke="#414A45" stroke-width="0.3" stroke-miterlimit="10" d="M115.297,35.979h-1.326v-0.444h1.326
					v-1.424h0.477v1.424h1.324v0.444h-1.324v1.43h-0.477V35.979z"/>
			</g>
		</g>
	</g>
</g>
</svg>
