<?xml version="1.0" encoding="utf-8"?>
<!-- Generator: Adobe Illustrator 16.0.0, SVG Export Plug-In . SVG Version: 6.00 Build 0)  -->
<!DOCTYPE svg PUBLIC "-//W3C//DTD SVG 1.1//EN" "http://www.w3.org/Graphics/SVG/1.1/DTD/svg11.dtd">
<svg version="1.1" id="Layer_1" xmlns="http://www.w3.org/2000/svg" xmlns:xlink="http://www.w3.org/1999/xlink" x="0px" y="0px"
	 width="396.48px" height="266.112px" viewBox="281.984 90.944 396.48 266.112"
	 enable-background="new 281.984 90.944 396.48 266.112" xml:space="preserve">
<path fill="#FFFFFF" d="M669.056,132.16H636.8V99.904c0-4.928-4.032-8.96-8.96-8.96H290.944c-4.928,0-8.96,4.032-8.96,8.96V306.88
	c0,4.928,4.032,8.96,8.96,8.96H323.2v32.256c0,4.929,4.032,8.96,8.96,8.96h337.344c4.928,0,8.96-4.031,8.96-8.96V141.12
	C678.016,136.192,673.984,132.16,669.056,132.16z M323.2,141.12v156.353h-23.296V108.864H618.88v23.296H332.16
	C327.232,132.16,323.2,136.192,323.2,141.12z M660.096,339.136H341.12V150.08h319.424v189.056H660.096z"/>
<path fill="#FFFFFF" d="M589.76,219.968h46.145c4.928,0,8.96-4.032,8.96-8.96v-36.736c0-4.928-4.032-8.96-8.96-8.96H589.76
	c-4.928,0-8.96,4.032-8.96,8.96v36.736C580.8,215.936,584.832,219.968,589.76,219.968z M598.72,183.232h28.225v18.816H598.72
	V183.232z M450.432,253.568h91.393c4.928,0,8.96-4.032,8.96-8.96c0-4.928-4.032-8.96-8.96-8.96h-91.393
	c-4.928,0-8.96,4.032-8.96,8.96C441.472,249.536,445.504,253.568,450.432,253.568z M364.864,183.232h37.632
	c4.928,0,8.96-4.032,8.96-8.96s-4.032-8.96-8.96-8.96h-37.632c-4.928,0-8.96,4.032-8.96,8.96S359.936,183.232,364.864,183.232
	L364.864,183.232z M450.432,311.36h83.328c4.928,0,8.96-4.032,8.96-8.96s-4.032-8.961-8.96-8.961h-83.328
	c-4.928,0-8.96,4.033-8.96,8.961S445.504,311.36,450.432,311.36z M450.432,282.688h70.784c4.929,0,8.96-4.032,8.96-8.959
	c0-4.928-4.031-8.96-8.96-8.96h-70.784c-4.928,0-8.96,4.032-8.96,8.96C441.472,278.656,445.504,282.688,450.432,282.688z"/>
<text transform="matrix(1 0 0 1 256 515.1992)" fill="#FFFFFF" font-family="'HelveticaNeue-Bold'" font-size="22.4">Created by Calvin Goodman</text>
<text transform="matrix(1 0 0 1 256 537.6016)" fill="#FFFFFF" font-family="'HelveticaNeue-Bold'" font-size="22.4">from the Noun Project</text>
</svg>
