<?xml version="1.0" encoding="utf-8"?>
<!-- Generator: Adobe Illustrator 19.2.1, SVG Export Plug-In . SVG Version: 6.00 Build 0)  -->
<svg version="1.1" id="Layer_1" xmlns="http://www.w3.org/2000/svg" xmlns:xlink="http://www.w3.org/1999/xlink" x="0px" y="0px"
	 viewBox="0 0 53.8 38" style="enable-background:new 0 0 53.8 38;" xml:space="preserve">
<style type="text/css">
	.st0{fill:#FFFFFF;}
</style>
<g>
	<rect x="18.2" y="1.2" class="st0" width="4" height="4"/>
	<rect x="30.2" y="1.2" class="st0" width="4" height="4"/>
	<path class="st0" d="M40.2,27.2v-22c0-1.1-0.9-2-2-2h-2v2c0,1.1-0.9,2-2,2h-4c-1.1,0-2-0.9-2-2v-2h-4v2c0,1.1-0.9,2-2,2h-4
		c-1.1,0-2-0.9-2-2v-2h-2c-1.1,0-2,0.9-2,2v22c0,1.1,0.9,2,2,2h24C39.4,29.2,40.2,28.4,40.2,27.2z"/>
	<path class="st0" d="M42.2,7.2v24h-26c0,1.1,0.9,2,2,2h24c1.1,0,2-0.9,2-2v-22C44.2,8.1,44.2,7.2,42.2,7.2z"/>
</g>
</svg>
