<?xml version="1.0" encoding="utf-8"?>
<!-- Generator: Adobe Illustrator 16.0.0, SVG Export Plug-In . SVG Version: 6.00 Build 0)  -->
<!DOCTYPE svg PUBLIC "-//W3C//DTD SVG 1.1//EN" "http://www.w3.org/Graphics/SVG/1.1/DTD/svg11.dtd">
<svg version="1.1" id="Layer_1" xmlns="http://www.w3.org/2000/svg" xmlns:xlink="http://www.w3.org/1999/xlink" x="0px" y="0px"
	 width="403.2px" height="403.2px" viewBox="0 0 403.2 403.2" enable-background="new 0 0 403.2 403.2" xml:space="preserve">
<path fill="#1C1C1C" d="M358.399,89.6C323.413,54.61,303.79,34.994,268.799,0H89.6C64.856,0,44.799,20.057,44.799,44.8v112H0V336
	h44.8v22.398c0,24.744,20.057,44.801,44.801,44.801h224c24.742,0,44.799-20.057,44.799-44.801V336H403.2V156.8h-44.801V89.6z
	 M257.6,36.318l64.48,64.481h-53.281c-6.174,0-11.199-5.027-11.199-11.2V36.318z M78.399,44.8c0-6.178,5.027-11.2,11.201-11.2H224
	v56c0,24.743,20.057,44.8,44.799,44.8h56v22.4h-246.4V44.8z M324.799,358.399c0,6.174-5.025,11.201-11.199,11.201h-224
	c-6.174,0-11.201-5.027-11.201-11.201V336h246.4V358.399L324.799,358.399z M380.799,179.2v134.4h-358.4V179.2H380.799z"/>
<polygon fill="#1C1C1C" points="73.6,257.6 96,257.6 96,291.2 118.4,291.2 118.4,201.6 96,201.6 96,235.2 73.6,235.2 73.6,201.6 
	51.2,201.6 51.2,291.2 73.6,291.2 "/>
<polygon fill="#1C1C1C" points="230.401,237.842 252.799,282.643 275.2,237.842 275.2,291.2 297.6,291.2 297.6,201.6 268.278,201.6 
	252.799,232.557 237.321,201.6 208,201.6 208,291.2 230.401,291.2 "/>
<polygon fill="#1C1C1C" points="364.799,268.799 331.2,268.799 331.2,201.6 308.799,201.6 308.799,291.2 364.799,291.2 "/>
<polygon fill="#1C1C1C" points="152,291.2 174.401,291.2 174.401,224 196.799,224 196.799,201.6 129.6,201.6 129.6,224 152,224 "/>
</svg>
