<?xml version="1.0" encoding="utf-8"?>
<!-- Generator: Adobe Illustrator 16.0.0, SVG Export Plug-In . SVG Version: 6.00 Build 0)  -->
<!DOCTYPE svg PUBLIC "-//W3C//DTD SVG 1.1//EN" "http://www.w3.org/Graphics/SVG/1.1/DTD/svg11.dtd">
<svg version="1.1" id="Layer_1" xmlns="http://www.w3.org/2000/svg" xmlns:xlink="http://www.w3.org/1999/xlink" x="0px" y="0px"
	 width="403.2px" height="403.2px" viewBox="278.4 22.4 403.2 403.2" enable-background="new 278.4 22.4 403.2 403.2"
	 xml:space="preserve">
<path fill="#3D3D3D" d="M636.8,112c-34.988-34.989-54.611-54.606-89.6-89.6H368c-24.743,0-44.8,20.057-44.8,44.8v112h-44.8v179.2
	h44.8V380.8c0,24.743,20.057,44.8,44.8,44.8h224c24.743,0,44.8-20.057,44.8-44.8V358.4h44.8V179.2h-44.8V112z M536,58.719
	l64.48,64.481H547.2c-6.174,0-11.2-5.027-11.2-11.2V58.719z M356.8,67.2c0-6.178,5.027-11.2,11.2-11.2h134.4v56
	c0,24.743,20.057,44.8,44.8,44.8h56v22.4H356.8V67.2z M603.2,380.8c0,6.174-5.026,11.2-11.2,11.2H368c-6.173,0-11.2-5.026-11.2-11.2
	V358.4h246.4V380.8z M659.2,201.6V336H300.8V201.6H659.2z"/>
<polygon fill="#3D3D3D" points="345.6,280 368,280 368,313.6 390.4,313.6 390.4,224 368,224 368,257.6 345.6,257.6 345.6,224 
	323.2,224 323.2,313.6 345.6,313.6 "/>
<polygon fill="#3D3D3D" points="502.4,260.243 524.8,305.043 547.2,260.243 547.2,313.6 569.6,313.6 569.6,224 540.278,224 
	524.8,254.957 509.321,224 480,224 480,313.6 502.4,313.6 "/>
<polygon fill="#3D3D3D" points="636.8,291.2 603.2,291.2 603.2,224 580.8,224 580.8,313.6 636.8,313.6 "/>
<polygon fill="#3D3D3D" points="424,313.6 446.4,313.6 446.4,246.4 468.8,246.4 468.8,224 401.6,224 401.6,246.4 424,246.4 "/>
<text transform="matrix(1 0 0 1 256 515.1992)" font-family="'HelveticaNeue-Bold'" font-size="22.4">Created by Arthur Shlain</text>
<text transform="matrix(1 0 0 1 256 537.6016)" font-family="'HelveticaNeue-Bold'" font-size="22.4">from the Noun Project</text>
</svg>
