<?xml version="1.0" encoding="utf-8"?>
<!-- Generator: Adobe Illustrator 16.0.0, SVG Export Plug-In . SVG Version: 6.00 Build 0)  -->
<!DOCTYPE svg PUBLIC "-//W3C//DTD SVG 1.1//EN" "http://www.w3.org/Graphics/SVG/1.1/DTD/svg11.dtd">
<svg version="1.1" id="Layer_1" xmlns="http://www.w3.org/2000/svg" xmlns:xlink="http://www.w3.org/1999/xlink" x="0px" y="0px"
	 width="537.416px" height="560px" viewBox="211.292 0 537.416 560" enable-background="new 211.292 0 537.416 560"
	 xml:space="preserve">
<path id="XMLID_49_" fill="#1C1C1C" d="M543.835,489.366v16.362c0,13.021-9.563,23.852-22.008,25.695l-4.033,14.864
	c-2.188,8.065-9.448,13.712-17.859,13.712H459.95c-8.411,0-15.67-5.646-17.859-13.712l-3.918-14.864
	c-12.56-1.959-22.123-12.675-22.123-25.811v-16.362c0-8.757,7.028-15.786,15.785-15.786h96.215
	C536.807,473.58,543.836,480.609,543.835,489.366L543.835,489.366z M617.926,268.823c0,37.218-14.749,70.979-38.716,95.753
	c-18.206,18.897-29.959,42.979-33.877,68.675c-1.728,11.062-11.292,19.243-22.584,19.243h-85.613
	c-11.177,0-20.855-8.066-22.469-19.128c-4.033-25.695-15.901-50.123-34.107-68.905c-23.506-24.428-38.14-57.613-38.485-94.14
	c-0.807-76.741,60.264-138.848,137.004-139.424C555.704,130.321,617.926,192.313,617.926,268.823z M495.556,185.284
	c0-8.527-6.914-15.556-15.556-15.556c-54.848,0-99.556,44.592-99.556,99.556c0,8.526,6.914,15.556,15.556,15.556
	c8.526,0,15.556-6.914,15.556-15.556c0-37.794,30.766-68.445,68.444-68.445C488.642,200.839,495.556,193.926,495.556,185.284
	L495.556,185.284z M480,85.613c8.526,0,15.556-6.914,15.556-15.556V15.556C495.556,7.029,488.642,0,480,0
	s-15.556,6.914-15.556,15.556v54.502C464.444,78.7,471.474,85.613,480,85.613z M296.905,268.708c0-8.527-6.914-15.556-15.556-15.556
	h-54.502c-8.527,0-15.556,6.914-15.556,15.556c0,8.526,6.914,15.556,15.556,15.556h54.502
	C289.992,284.264,296.905,277.35,296.905,268.708z M733.152,253.152H678.65c-8.527,0-15.556,6.914-15.556,15.556
	c0,8.526,6.913,15.556,15.556,15.556h54.502c8.526,0,15.556-6.914,15.556-15.556C748.708,260.181,741.794,253.152,733.152,253.152z
	 M328.593,398.223l-38.601,38.601c-6.107,6.106-6.107,15.901,0,22.008c2.996,2.996,7.029,4.494,10.947,4.494
	c3.917,0,7.95-1.498,10.946-4.494l38.601-38.601c6.107-6.107,6.107-15.901,0-22.008
	C344.494,392.115,334.584,392.115,328.593,398.223z M620.461,143.803c3.918,0,7.95-1.498,10.946-4.494l38.601-38.601
	c6.107-6.107,6.107-15.901,0-22.008c-6.106-6.107-15.9-6.107-22.008,0L609.399,117.3c-6.107,6.107-6.107,15.901,0,22.008
	C612.51,142.305,616.428,143.803,620.461,143.803z M328.593,139.193c2.996,2.996,7.029,4.494,10.946,4.494
	c3.918,0,7.951-1.498,10.946-4.494c6.107-6.107,6.107-15.901,0-22.008l-38.601-38.601c-6.107-6.107-15.901-6.107-22.008,0
	s-6.107,15.901,0,22.008L328.593,139.193z M631.407,398.223c-6.106-6.107-15.901-6.107-22.008,0c-6.107,6.106-6.107,15.9,0,22.008
	L648,458.831c2.996,2.996,7.029,4.494,10.946,4.494c3.918,0,7.951-1.498,10.946-4.494c6.107-6.106,6.107-15.901,0-22.008
	L631.407,398.223z"/>
</svg>
