<?xml version="1.0" standalone="no"?><!DOCTYPE svg PUBLIC "-//W3C//DTD SVG 1.1//EN" "http://www.w3.org/Graphics/SVG/1.1/DTD/svg11.dtd"><svg width="100%" height="100%" viewBox="0 0 486 486" version="1.1" xmlns="http://www.w3.org/2000/svg" xmlns:xlink="http://www.w3.org/1999/xlink" xml:space="preserve" style="fill-rule:evenodd;clip-rule:evenodd;stroke-linejoin:round;stroke-miterlimit:1.41421;"><path id="XMLID_49_" d="M298.4,424.7l0,14.2c0,11.3 -8.3,20.7 -19.1,22.3l-3.5,12.9c-1.9,7 -8.2,11.9 -15.5,11.9l-34.7,0c-7.3,0 -13.6,-4.9 -15.5,-11.9l-3.4,-12.9c-10.9,-1.7 -19.2,-11 -19.2,-22.4l0,-14.2c0,-7.6 6.1,-13.7 13.7,-13.7l83.5,0c7.6,0.1 13.7,6.2 13.7,13.8ZM362.7,233.3c0,32.3 -12.8,61.6 -33.6,83.1c-15.8,16.4 -26,37.3 -29.4,59.6c-1.5,9.6 -9.8,16.7 -19.6,16.7l-74.3,0c-9.7,0 -18.1,-7 -19.5,-16.6c-3.5,-22.3 -13.8,-43.5 -29.6,-59.8c-20.4,-21.2 -33.1,-50 -33.4,-81.7c-0.7,-66.6 52.3,-120.5 118.9,-121c66.5,-0.5 120.5,53.3 120.5,119.7ZM256.5,160.8c0,-7.4 -6,-13.5 -13.5,-13.5c-47.6,0 -86.4,38.7 -86.4,86.4c0,7.4 6,13.5 13.5,13.5c7.4,0 13.5,-6 13.5,-13.5c0,-32.8 26.7,-59.4 59.4,-59.4c7.5,0 13.5,-6 13.5,-13.5ZM243,74.3c7.4,0 13.5,-6 13.5,-13.5l0,-47.3c0,-7.4 -6,-13.5 -13.5,-13.5c-7.5,0 -13.5,6 -13.5,13.5l0,47.3c0,7.5 6.1,13.5 13.5,13.5ZM84.1,233.2c0,-7.4 -6,-13.5 -13.5,-13.5l-47.3,0c-7.4,0 -13.5,6 -13.5,13.5c0,7.4 6,13.5 13.5,13.5l47.3,0c7.5,0 13.5,-6 13.5,-13.5ZM462.7,219.7l-47.3,0c-7.4,0 -13.5,6 -13.5,13.5c0,7.4 6,13.5 13.5,13.5l47.3,0c7.4,0 13.5,-6 13.5,-13.5c0,-7.4 -6,-13.5 -13.5,-13.5ZM111.6,345.6l-33.5,33.5c-5.3,5.3 -5.3,13.8 0,19.1c2.6,2.6 6.1,3.9 9.5,3.9c3.4,0 6.9,-1.3 9.5,-3.9l33.5,-33.5c5.3,-5.3 5.3,-13.8 0,-19.1c-5.2,-5.3 -13.8,-5.3 -19,0ZM364.9,124.8c3.4,0 6.9,-1.3 9.5,-3.9l33.5,-33.5c5.3,-5.3 5.3,-13.8 0,-19.1c-5.3,-5.3 -13.8,-5.3 -19.1,0l-33.5,33.5c-5.3,5.3 -5.3,13.8 0,19.1c2.7,2.6 6.1,3.9 9.6,3.9ZM111.6,120.8c2.6,2.6 6.1,3.9 9.5,3.9c3.4,0 6.9,-1.3 9.5,-3.9c5.3,-5.3 5.3,-13.8 0,-19.1l-33.5,-33.5c-5.3,-5.3 -13.8,-5.3 -19.1,0c-5.3,5.3 -5.3,13.8 0,19.1l33.6,33.5ZM374.4,345.6c-5.3,-5.3 -13.8,-5.3 -19.1,0c-5.3,5.3 -5.3,13.8 0,19.1l33.5,33.5c2.6,2.6 6.1,3.9 9.5,3.9c3.4,0 6.9,-1.3 9.5,-3.9c5.3,-5.3 5.3,-13.8 0,-19.1l-33.4,-33.5Z" style="fill:#3d3d3d;fill-rule:nonzero;"/></svg>