<?xml version="1.0" encoding="utf-8"?>
<!-- Generator: Adobe Illustrator 19.2.1, SVG Export Plug-In . SVG Version: 6.00 Build 0)  -->
<svg version="1.1" id="Layer_1" xmlns="http://www.w3.org/2000/svg" xmlns:xlink="http://www.w3.org/1999/xlink" x="0px" y="0px"
	 viewBox="0 0 144 95.2" style="enable-background:new 0 0 144 95.2;" xml:space="preserve">
<style type="text/css">
	.st0{fill:#FFFFFF;}
</style>
<path class="st0" d="M92,18.2c0-3.1-2.5-5.6-5.6-5.6c-1,0-2,0.3-2.8,0.7l0-3.2c0-0.1,0-0.3,0-0.4c0-3.1-2.5-5.6-5.6-5.6
	c-1,0-2,0.3-2.8,0.8C75,2.2,72.6,0,69.8,0c-2.9,0-5.2,2.2-5.5,4.9c-0.8-0.5-1.8-0.8-2.8-0.8c-3.1,0-5.6,2.5-5.6,5.6v17.5
	c-1.4-1.2-3.2-1.8-5-1.8c-1.8,0-3.3,1.5-3.3,3.3v24.9c0,6.6,2.9,12.6,7.5,16.6c0.1,0.1,0.1,0.1,0.2,0.2c0.2,0.2,0.5,0.4,0.7,0.6
	l0,19.2c0,0.5,0.6,1,1.3,1l0.1,0c0,0,0,0,0,0h0c0.7,0,1.3-0.5,1.3-1l0-17.2c1.1,0.7,2.3,1.2,3.5,1.7c0.2,0.1,0.3,0.1,0.5,0.1
	c0.6,0,1.1-0.4,1.3-0.9c0.3-0.7-0.1-1.6-0.9-1.8c-0.4-0.2-0.8-0.3-1.3-0.5c0,0,0,0,0,0s0,0-0.1,0c-1.7-0.8-3.3-1.8-4.7-3
	c-0.1-0.1-0.2-0.1-0.3-0.2c-4-3.6-6.5-8.7-6.5-14.5V33.3l0-4.6c0-0.3,0.2-0.5,0.5-0.5c2.8,0,5,2.3,5,5v10.8c0,0.8,0.6,1.4,1.4,1.4h0
	c6.2,0,11.3,5,11.3,11.3c0,0.8,0.6,1.4,1.4,1.4s1.4-0.6,1.4-1.4c0-7.3-5.5-13.3-12.6-14v-33c0-1.5,1.2-2.8,2.8-2.8
	c1.5,0,2.8,1.2,2.8,2.8c0,0.1,0,0.2,0,0.3l0,24.9c0,0.8,0.6,1.4,1.4,1.4l0,0l0,0c0.8,0,1.4-0.6,1.4-1.4V5.8l0-0.1c0-0.1,0-0.1,0-0.2
	c0-1.5,1.2-2.8,2.8-2.8c1.5,0,2.8,1.2,2.8,2.8c0,0.1,0,0.1,0,0.2l0,0l0,3.6c0,0.1,0,0.2,0,0.4c0,0.1,0,0.2,0,0.3V35
	c0,0.8,0.6,1.4,1.4,1.4c0.8,0,1.4-0.6,1.4-1.4V9.5C75.4,8.1,76.6,7,78.1,7c1.5,0,2.8,1.2,2.8,2.8c0,0.1,0,0.1,0,0.2l0,27.3
	c0,0.8,0.6,1.4,1.3,1.4l0.1,0c0,0,0,0,0,0h0c0.7,0,1.3-0.6,1.3-1.4l0-18.8l0-0.1c0-0.1,0-0.1,0-0.2c0-1.5,1.2-2.8,2.8-2.8
	c1.5,0,2.8,1.2,2.8,2.8c0,0.1,0,0.1,0,0.2l0,35.2c0,5.5-2.3,10.5-6,14.1c-0.1,0.1-0.2,0.1-0.3,0.2c-1.9,1.8-4.1,3.1-6.5,4
	c-0.7,0.3-1.1,1.1-0.9,1.8c0.2,0.6,0.8,0.9,1.3,0.9c0.2,0,0.3,0,0.5-0.1c1.2-0.4,2.4-1,3.5-1.7l0,17.2c0,0.5,0.6,1,1.3,1l0.1,0
	c0,0,0,0,0,0h0c0.7,0,1.3-0.5,1.3-1l0-19.2c0.4-0.3,0.8-0.7,1.2-1c0,0,0.1-0.1,0.1-0.1C89.3,65.8,92,60,92,53.6l0-35
	C92,18.4,92,18.3,92,18.2z"/>
</svg>
