<?xml version="1.0" encoding="utf-8"?>
<!-- Generator: Adobe Illustrator 19.2.1, SVG Export Plug-In . SVG Version: 6.00 Build 0)  -->
<svg version="1.1" id="Layer_1" xmlns="http://www.w3.org/2000/svg" xmlns:xlink="http://www.w3.org/1999/xlink" x="0px" y="0px"
	 viewBox="0 0 137 105" style="enable-background:new 0 0 137 105;" xml:space="preserve">
<style type="text/css">
	.st0{fill:#1C1C1C;}
</style>
<path class="st0" d="M95.8,95H40.2c-6.6,0-11.9-5.3-11.9-11.9V16.9C28.3,10.3,33.6,5,40.2,5h55.6c6.6,0,11.9,5.3,11.9,11.9v66.2
	C107.7,89.7,102.4,95,95.8,95z M40.2,76.5C40.2,76.5,40.2,76.5,40.2,76.5c-3.7,0-6.6,3-6.6,6.6V69.9c0,0,0,0,0,0v13.2
	c0,3.7,3,6.6,6.6,6.6h55.6c3.7,0,6.6-3,6.6-6.6v-6.7h-6.2c-0.1,0-0.3,0-0.4,0C95.8,76.5,40.2,76.5,40.2,76.5z M89.2,23.5H46.8v8
	h42.4V23.5z"/>
</svg>
